<svg xmlns="http://www.w3.org/2000/svg" xmlns:xlink="http://www.w3.org/1999/xlink" width="500" zoomAndPan="magnify" viewBox="0 0 375 374.999991" height="500" preserveAspectRatio="xMidYMid meet" version="1.0"><defs><g/><clipPath id="ac8a1afd00"><path d="M 37.5 139.667969 L 65 139.667969 L 65 228 L 37.5 228 Z M 37.5 139.667969 " clip-rule="nonzero"/></clipPath><clipPath id="d083747e92"><path d="M 311 139.667969 L 337.460938 139.667969 L 337.460938 228 L 311 228 Z M 311 139.667969 " clip-rule="nonzero"/></clipPath></defs><rect x="-37.5" width="450" fill="#ffffff" y="-37.499999" height="449.999989" fill-opacity="1"/><rect x="-37.5" width="450" fill="#ffffff" y="-37.499999" height="449.999989" fill-opacity="1"/><g fill="#67dd0a" fill-opacity="1"><g transform="translate(69.479554, 219.60671)"><g><path d="M 39.546875 1 C 42.296875 1 44.84375 -0.351562 46.34375 -2.199219 L 44.246094 -5.5 C 43.496094 -4.347656 42.394531 -3.550781 41.296875 -3.550781 C 39.945312 -3.550781 39.246094 -4.5 38.644531 -5.699219 L 36.144531 -10.75 C 35.296875 -12.648438 34.148438 -14.097656 32.445312 -15 L 32.445312 -15.046875 C 38.945312 -15.75 42.945312 -19.546875 42.945312 -24.847656 C 42.945312 -31.398438 37.796875 -35.445312 29.496094 -35.445312 L 2.5 -35.445312 L 2.5 0 L 9.449219 0 L 9.449219 -13.75 L 23.898438 -13.75 C 26.398438 -13.75 28.496094 -12.199219 29.695312 -9.699219 L 32.398438 -3.949219 C 33.746094 -1.300781 35.796875 1 39.546875 1 Z M 9.449219 -18.546875 L 9.449219 -30.496094 L 28.046875 -30.496094 C 32.898438 -30.496094 35.996094 -28.148438 35.996094 -24.449219 C 35.996094 -20.898438 32.898438 -18.546875 28.046875 -18.546875 Z M 9.449219 -18.546875 "/></g></g></g><g fill="#67dd0a" fill-opacity="1"><g transform="translate(115.822378, 219.60671)"><g><path d="M 26.546875 1.25 C 41.246094 1.25 51.246094 -6.449219 51.246094 -17.699219 C 51.246094 -28.898438 41.246094 -36.695312 26.546875 -36.695312 C 11.898438 -36.695312 1.898438 -28.898438 1.898438 -17.699219 C 1.898438 -6.449219 11.898438 1.25 26.546875 1.25 Z M 26.546875 -4.148438 C 16.097656 -4.148438 8.847656 -9.699219 8.847656 -17.699219 C 8.847656 -25.699219 16.097656 -31.246094 26.546875 -31.246094 C 36.996094 -31.246094 44.296875 -25.699219 44.296875 -17.699219 C 44.296875 -9.699219 36.996094 -4.148438 26.546875 -4.148438 Z M 26.546875 -4.148438 "/></g></g></g><g fill="#67dd0a" fill-opacity="1"><g transform="translate(168.964148, 219.60671)"><g><path d="M 26.347656 1.148438 C 37.847656 1.148438 46.695312 -4.148438 49.09375 -12.5 L 42.644531 -14 C 40.847656 -8.050781 34.597656 -4.25 26.449219 -4.25 C 15.699219 -4.25 8.847656 -9.5 8.847656 -17.699219 C 8.847656 -25.898438 15.097656 -31.148438 24.898438 -31.148438 C 31.996094 -31.148438 37.546875 -27.796875 39.246094 -22.496094 L 45.546875 -24.347656 C 42.945312 -31.796875 34.847656 -36.546875 24.746094 -36.546875 C 10.75 -36.546875 1.898438 -29.195312 1.898438 -17.699219 C 1.898438 -6.097656 11.398438 1.148438 26.347656 1.148438 Z M 26.347656 1.148438 "/></g></g></g><g fill="#67dd0a" fill-opacity="1"><g transform="translate(219.406336, 219.60671)"><g><path d="M 2.5 0 L 9.449219 0 L 9.449219 -15.898438 L 35.894531 -15.898438 L 35.894531 0 L 42.796875 0 L 42.796875 -35.445312 L 35.894531 -35.445312 L 35.894531 -21.148438 L 9.449219 -21.148438 L 9.449219 -35.445312 L 2.5 -35.445312 Z M 2.5 0 "/></g></g></g><g fill="#67dd0a" fill-opacity="1"><g transform="translate(264.699314, 219.60671)"><g><path d="M 0.199219 0 L 7.449219 0 L 11.5 -7.75 L 33.695312 -7.75 L 37.746094 0 L 45.046875 0 L 26.746094 -35.445312 L 18.648438 -35.445312 Z M 13.546875 -12.597656 L 22.597656 -30.398438 L 22.699219 -30.398438 L 31.695312 -12.597656 Z M 13.546875 -12.597656 "/></g></g></g><g fill="#0e073f" fill-opacity="1"><g transform="translate(64.71364, 178.640967)"><g><path d="M 27.421875 -18.5625 L 36.328125 -18.5625 L 36.328125 -3.8125 C 34.285156 -2.351562 31.941406 -1.234375 29.296875 -0.453125 C 26.648438 0.328125 24.007812 0.71875 21.375 0.71875 C 17.632812 0.71875 14.269531 -0.0664062 11.28125 -1.640625 C 8.300781 -3.222656 5.960938 -5.421875 4.265625 -8.234375 C 2.578125 -11.054688 1.734375 -14.25 1.734375 -17.8125 C 1.734375 -21.363281 2.578125 -24.546875 4.265625 -27.359375 C 5.960938 -30.179688 8.320312 -32.378906 11.34375 -33.953125 C 14.363281 -35.535156 17.773438 -36.328125 21.578125 -36.328125 C 24.898438 -36.328125 27.882812 -35.765625 30.53125 -34.640625 C 33.175781 -33.523438 35.378906 -31.914062 37.140625 -29.8125 L 30.734375 -24.015625 C 28.316406 -26.660156 25.429688 -27.984375 22.078125 -27.984375 C 19.023438 -27.984375 16.566406 -27.054688 14.703125 -25.203125 C 12.835938 -23.359375 11.90625 -20.894531 11.90625 -17.8125 C 11.90625 -15.84375 12.328125 -14.082031 13.171875 -12.53125 C 14.023438 -10.988281 15.210938 -9.785156 16.734375 -8.921875 C 18.265625 -8.054688 20.015625 -7.625 21.984375 -7.625 C 23.910156 -7.625 25.722656 -8.015625 27.421875 -8.796875 Z M 27.421875 -18.5625 "/></g></g></g><g fill="#0e073f" fill-opacity="1"><g transform="translate(99.248684, 178.640967)"><g><path d="M 32.109375 -27.578125 L 32.109375 0 L 22.890625 0 L 22.890625 -2.953125 C 21.878906 -1.828125 20.660156 -0.976562 19.234375 -0.40625 C 17.804688 0.164062 16.296875 0.453125 14.703125 0.453125 C 11.140625 0.453125 8.296875 -0.59375 6.171875 -2.6875 C 4.054688 -4.789062 3 -7.945312 3 -12.15625 L 3 -27.578125 L 12.671875 -27.578125 L 12.671875 -13.734375 C 12.671875 -11.671875 13.0625 -10.160156 13.84375 -9.203125 C 14.625 -8.253906 15.757812 -7.78125 17.25 -7.78125 C 18.769531 -7.78125 20.015625 -8.3125 20.984375 -9.375 C 21.953125 -10.445312 22.4375 -12.085938 22.4375 -14.296875 L 22.4375 -27.578125 Z M 32.109375 -27.578125 "/></g></g></g><g fill="#0e073f" fill-opacity="1"><g transform="translate(129.816429, 178.640967)"><g><path d="M 3.109375 -27.578125 L 12.765625 -27.578125 L 12.765625 0 L 3.109375 0 Z M 7.9375 -30.625 C 6.175781 -30.625 4.753906 -31.113281 3.671875 -32.09375 C 2.585938 -33.082031 2.046875 -34.304688 2.046875 -35.765625 C 2.046875 -37.222656 2.585938 -38.441406 3.671875 -39.421875 C 4.753906 -40.410156 6.175781 -40.90625 7.9375 -40.90625 C 9.707031 -40.90625 11.132812 -40.4375 12.21875 -39.5 C 13.300781 -38.570312 13.84375 -37.378906 13.84375 -35.921875 C 13.84375 -34.390625 13.300781 -33.125 12.21875 -32.125 C 11.132812 -31.125 9.707031 -30.625 7.9375 -30.625 Z M 7.9375 -30.625 "/></g></g></g><g fill="#0e073f" fill-opacity="1"><g transform="translate(141.107188, 178.640967)"><g><path d="M 3.109375 -37.75 L 12.765625 -37.75 L 12.765625 0 L 3.109375 0 Z M 3.109375 -37.75 "/></g></g></g><g fill="#0e073f" fill-opacity="1"><g transform="translate(152.397941, 178.640967)"><g><path d="M 21.0625 -28.03125 C 24.488281 -28.03125 27.242188 -27.007812 29.328125 -24.96875 C 31.410156 -22.9375 32.453125 -19.867188 32.453125 -15.765625 L 32.453125 0 L 22.796875 0 L 22.796875 -14.1875 C 22.796875 -17.957031 21.285156 -19.84375 18.265625 -19.84375 C 16.597656 -19.84375 15.265625 -19.296875 14.265625 -18.203125 C 13.265625 -17.117188 12.765625 -15.492188 12.765625 -13.328125 L 12.765625 0 L 3.109375 0 L 3.109375 -37.75 L 12.765625 -37.75 L 12.765625 -25.03125 C 13.816406 -26.007812 15.054688 -26.753906 16.484375 -27.265625 C 17.910156 -27.773438 19.4375 -28.03125 21.0625 -28.03125 Z M 21.0625 -28.03125 "/></g></g></g><g fill="#0e073f" fill-opacity="1"><g transform="translate(183.169134, 178.640967)"><g><path d="M 31.28125 -13.734375 C 31.28125 -13.671875 31.234375 -12.875 31.140625 -11.34375 L 11.09375 -11.34375 C 11.5 -9.914062 12.285156 -8.820312 13.453125 -8.0625 C 14.628906 -7.300781 16.097656 -6.921875 17.859375 -6.921875 C 19.179688 -6.921875 20.320312 -7.101562 21.28125 -7.46875 C 22.25 -7.84375 23.226562 -8.457031 24.21875 -9.3125 L 29.296875 -4.015625 C 26.617188 -1.035156 22.703125 0.453125 17.546875 0.453125 C 14.328125 0.453125 11.492188 -0.15625 9.046875 -1.375 C 6.609375 -2.59375 4.71875 -4.285156 3.375 -6.453125 C 2.039062 -8.628906 1.375 -11.09375 1.375 -13.84375 C 1.375 -16.550781 2.023438 -18.984375 3.328125 -21.140625 C 4.640625 -23.296875 6.445312 -24.984375 8.75 -26.203125 C 11.050781 -27.421875 13.644531 -28.03125 16.53125 -28.03125 C 19.28125 -28.03125 21.773438 -27.460938 24.015625 -26.328125 C 26.253906 -25.191406 28.023438 -23.546875 29.328125 -21.390625 C 30.628906 -19.234375 31.28125 -16.679688 31.28125 -13.734375 Z M 16.578125 -21.15625 C 15.085938 -21.15625 13.84375 -20.734375 12.84375 -19.890625 C 11.84375 -19.046875 11.207031 -17.894531 10.9375 -16.4375 L 22.234375 -16.4375 C 21.960938 -17.894531 21.328125 -19.046875 20.328125 -19.890625 C 19.328125 -20.734375 18.078125 -21.15625 16.578125 -21.15625 Z M 16.578125 -21.15625 "/></g></g></g><g fill="#0e073f" fill-opacity="1"><g transform="translate(211.193746, 178.640967)"><g><path d="M 12.3125 -24.265625 C 13.289062 -25.523438 14.566406 -26.46875 16.140625 -27.09375 C 17.722656 -27.71875 19.535156 -28.03125 21.578125 -28.03125 L 21.578125 -19.328125 C 20.691406 -19.429688 19.960938 -19.484375 19.390625 -19.484375 C 17.316406 -19.484375 15.691406 -18.921875 14.515625 -17.796875 C 13.347656 -16.679688 12.765625 -14.972656 12.765625 -12.671875 L 12.765625 0 L 3.109375 0 L 3.109375 -27.578125 L 12.3125 -27.578125 Z M 12.3125 -24.265625 "/></g></g></g><g fill="#0e073f" fill-opacity="1"><g transform="translate(229.096662, 178.640967)"><g><path d="M 39.015625 -28.03125 C 42.410156 -28.03125 45.113281 -27.007812 47.125 -24.96875 C 49.144531 -22.9375 50.15625 -19.867188 50.15625 -15.765625 L 50.15625 0 L 40.5 0 L 40.5 -14.1875 C 40.5 -16.125 40.132812 -17.550781 39.40625 -18.46875 C 38.675781 -19.382812 37.648438 -19.84375 36.328125 -19.84375 C 34.867188 -19.84375 33.695312 -19.332031 32.8125 -18.3125 C 31.925781 -17.289062 31.484375 -15.75 31.484375 -13.6875 L 31.484375 0 L 21.828125 0 L 21.828125 -14.1875 C 21.828125 -17.957031 20.4375 -19.84375 17.65625 -19.84375 C 16.164062 -19.84375 14.976562 -19.332031 14.09375 -18.3125 C 13.207031 -17.289062 12.765625 -15.75 12.765625 -13.6875 L 12.765625 0 L 3.109375 0 L 3.109375 -27.578125 L 12.3125 -27.578125 L 12.3125 -24.671875 C 13.332031 -25.796875 14.546875 -26.632812 15.953125 -27.1875 C 17.359375 -27.75 18.890625 -28.03125 20.546875 -28.03125 C 22.484375 -28.03125 24.210938 -27.671875 25.734375 -26.953125 C 27.265625 -26.242188 28.503906 -25.160156 29.453125 -23.703125 C 30.535156 -25.097656 31.910156 -26.164062 33.578125 -26.90625 C 35.242188 -27.65625 37.054688 -28.03125 39.015625 -28.03125 Z M 39.015625 -28.03125 "/></g></g></g><g fill="#0e073f" fill-opacity="1"><g transform="translate(277.618962, 178.640967)"><g><path d="M 31.28125 -13.734375 C 31.28125 -13.671875 31.234375 -12.875 31.140625 -11.34375 L 11.09375 -11.34375 C 11.5 -9.914062 12.285156 -8.820312 13.453125 -8.0625 C 14.628906 -7.300781 16.097656 -6.921875 17.859375 -6.921875 C 19.179688 -6.921875 20.320312 -7.101562 21.28125 -7.46875 C 22.25 -7.84375 23.226562 -8.457031 24.21875 -9.3125 L 29.296875 -4.015625 C 26.617188 -1.035156 22.703125 0.453125 17.546875 0.453125 C 14.328125 0.453125 11.492188 -0.15625 9.046875 -1.375 C 6.609375 -2.59375 4.71875 -4.285156 3.375 -6.453125 C 2.039062 -8.628906 1.375 -11.09375 1.375 -13.84375 C 1.375 -16.550781 2.023438 -18.984375 3.328125 -21.140625 C 4.640625 -23.296875 6.445312 -24.984375 8.75 -26.203125 C 11.050781 -27.421875 13.644531 -28.03125 16.53125 -28.03125 C 19.28125 -28.03125 21.773438 -27.460938 24.015625 -26.328125 C 26.253906 -25.191406 28.023438 -23.546875 29.328125 -21.390625 C 30.628906 -19.234375 31.28125 -16.679688 31.28125 -13.734375 Z M 16.578125 -21.15625 C 15.085938 -21.15625 13.84375 -20.734375 12.84375 -19.890625 C 11.84375 -19.046875 11.207031 -17.894531 10.9375 -16.4375 L 22.234375 -16.4375 C 21.960938 -17.894531 21.328125 -19.046875 20.328125 -19.890625 C 19.328125 -20.734375 18.078125 -21.15625 16.578125 -21.15625 Z M 16.578125 -21.15625 "/></g></g></g><g clip-path="url(#ac8a1afd00)"><path fill="#b6f829" d="M 62.039062 149.476562 L 64.492188 149.476562 L 64.492188 139.667969 L 62.039062 139.667969 C 53.914062 139.667969 47.328125 146.253906 47.328125 154.378906 L 47.328125 171.546875 C 47.328125 173.089844 46.597656 174.542969 45.363281 175.46875 L 39.480469 179.882812 C 38.300781 180.765625 37.582031 182.132812 37.523438 183.601562 C 37.460938 185.074219 38.0625 186.492188 39.164062 187.472656 L 45.679688 193.261719 C 46.726562 194.191406 47.328125 195.527344 47.328125 196.929688 L 47.328125 213.230469 C 47.328125 221.359375 53.914062 227.945312 62.039062 227.945312 L 64.492188 227.945312 L 64.492188 218.136719 L 62.039062 218.136719 C 59.332031 218.136719 57.136719 215.941406 57.136719 213.230469 L 57.136719 196.929688 C 57.136719 192.726562 55.335938 188.722656 52.195312 185.929688 L 50.167969 184.128906 L 51.25 183.316406 C 54.953125 180.535156 57.136719 176.175781 57.136719 171.546875 L 57.136719 154.378906 C 57.136719 151.671875 59.332031 149.476562 62.039062 149.476562 Z M 62.039062 149.476562 " fill-opacity="1" fill-rule="evenodd"/></g><g clip-path="url(#d083747e92)"><path fill="#b6f829" d="M 313.484375 149.476562 L 311.03125 149.476562 L 311.03125 139.667969 L 313.484375 139.667969 C 321.609375 139.667969 328.195312 146.253906 328.195312 154.378906 L 328.195312 171.546875 C 328.195312 173.089844 328.925781 174.542969 330.160156 175.46875 L 336.042969 179.882812 C 337.222656 180.765625 337.941406 182.132812 338 183.601562 C 338.0625 185.074219 337.460938 186.492188 336.359375 187.472656 L 329.84375 193.261719 C 328.796875 194.191406 328.195312 195.527344 328.195312 196.929688 L 328.195312 213.230469 C 328.195312 221.359375 321.609375 227.945312 313.484375 227.945312 L 311.03125 227.945312 L 311.03125 218.136719 L 313.484375 218.136719 C 316.191406 218.136719 318.386719 215.941406 318.386719 213.230469 L 318.386719 196.929688 C 318.386719 192.726562 320.1875 188.722656 323.328125 185.929688 L 325.355469 184.128906 L 324.273438 183.316406 C 320.570312 180.535156 318.386719 176.175781 318.386719 171.546875 L 318.386719 154.378906 C 318.386719 151.671875 316.191406 149.476562 313.484375 149.476562 Z M 313.484375 149.476562 " fill-opacity="1" fill-rule="evenodd"/></g></svg>